<svg width="70" height="23" viewBox="0 0 334 80" fill="currentColor" xmlns="http://www.w3.org/2000/svg" class="_46r0407"><g clip-path="url(#clip0_256_861)"><path d="M314.393 69.28C310.446 69.28 306.979 68.4267 303.993 66.72C301.006 64.96 298.686 62.48 297.033 59.28C295.379 56.08 294.553 52.32 294.553 48C294.553 43.8933 295.406 40.24 297.113 37.04C298.819 33.84 301.166 31.36 304.153 29.6C307.139 27.7867 310.499 26.88 314.233 26.88C318.499 26.88 322.126 27.92 325.113 30C328.099 32.08 330.286 34.9333 331.673 38.56C333.059 42.1333 333.566 46.1333 333.193 50.56H305.033C305.139 53.0133 305.619 55.04 306.473 56.64C307.326 58.1867 308.419 59.3333 309.753 60.08C311.139 60.7733 312.713 61.12 314.473 61.12C316.926 61.12 318.899 60.48 320.393 59.2C321.886 57.92 323.086 56.2133 323.993 54.08L333.353 57.6C332.446 59.7333 331.219 61.68 329.673 63.44C328.126 65.1467 326.073 66.56 323.513 67.68C321.006 68.7467 317.966 69.28 314.393 69.28ZM322.793 43.04C322.686 41.2267 322.259 39.7067 321.513 38.48C320.766 37.2 319.779 36.24 318.553 35.6C317.326 34.9067 315.886 34.56 314.233 34.56C311.886 34.56 309.913 35.3067 308.313 36.8C306.713 38.24 305.726 40.32 305.353 43.04H322.793Z"></path><path d="M264.656 69.28C261.189 69.28 258.176 68.4 255.616 66.64C253.056 64.8267 251.056 62.3467 249.616 59.2C248.229 56 247.536 52.2933 247.536 48.08C247.536 43.8133 248.229 40.1067 249.616 36.96C251.056 33.76 253.056 31.28 255.616 29.52C258.176 27.76 261.189 26.88 264.656 26.88C267.696 26.88 270.309 27.5733 272.496 28.96C274.736 30.2933 276.416 31.84 277.536 33.6C277.536 32.5867 277.536 31.52 277.536 30.4C277.536 29.28 277.536 28 277.536 26.56V12H287.936V68H277.776C277.776 67.04 277.776 66.1067 277.776 65.2C277.776 64.2933 277.776 63.3867 277.776 62.48C276.602 64.24 274.896 65.8133 272.656 67.2C270.416 68.5867 267.749 69.28 264.656 69.28ZM268.176 61.12C270.149 61.12 271.856 60.64 273.296 59.68C274.789 58.72 275.936 57.2533 276.736 55.28C277.589 53.3067 278.016 50.9067 278.016 48.08C278.016 45.2 277.589 42.7733 276.736 40.8C275.936 38.8267 274.789 37.36 273.296 36.4C271.856 35.44 270.149 34.96 268.176 34.96C266.256 34.96 264.576 35.3867 263.136 36.24C261.696 37.0933 260.549 38.5067 259.696 40.48C258.896 42.4533 258.496 44.9867 258.496 48.08C258.496 51.1733 258.896 53.7067 259.696 55.68C260.549 57.6 261.696 58.9867 263.136 59.84C264.576 60.6933 266.256 61.12 268.176 61.12Z"></path><path d="M223.181 69.28C219.341 69.28 215.847 68.3733 212.701 66.56C209.554 64.6933 207.101 62.16 205.341 58.96C203.581 55.7067 202.701 52.08 202.701 48.08C202.701 43.92 203.554 40.24 205.261 37.04C207.021 33.84 209.474 31.36 212.621 29.6C215.767 27.7867 219.287 26.88 223.181 26.88C227.127 26.88 230.647 27.7867 233.741 29.6C236.887 31.36 239.341 33.84 241.101 37.04C242.861 40.24 243.741 43.92 243.741 48.08C243.741 52.24 242.861 55.9467 241.101 59.2C239.341 62.4 236.887 64.88 233.741 66.64C230.647 68.4 227.127 69.28 223.181 69.28ZM223.181 60.8C225.154 60.8 226.861 60.3467 228.301 59.44C229.741 58.48 230.861 57.0667 231.661 55.2C232.461 53.3333 232.861 50.9867 232.861 48.16C232.861 45.3867 232.461 43.04 231.661 41.12C230.861 39.1467 229.714 37.68 228.221 36.72C226.781 35.76 225.101 35.28 223.181 35.28C221.314 35.28 219.634 35.76 218.141 36.72C216.701 37.68 215.581 39.1467 214.781 41.12C213.981 43.04 213.581 45.3867 213.581 48.16C213.581 50.9867 213.981 53.3333 214.781 55.2C215.581 57.0667 216.701 58.48 218.141 59.44C219.581 60.3467 221.261 60.8 223.181 60.8Z"></path><path d="M160.201 68V28.08H170.361V31.52C170.361 31.9467 170.361 32.4 170.361 32.88C170.361 33.36 170.361 33.84 170.361 34.32C170.947 33.2533 171.774 32.16 172.841 31.04C173.961 29.92 175.401 28.96 177.161 28.16C178.921 27.3067 180.947 26.88 183.241 26.88C186.334 26.88 188.867 27.4933 190.841 28.72C192.814 29.8933 194.254 31.5467 195.161 33.68C196.121 35.8133 196.601 38.3733 196.601 41.36V68H186.121V43.68C186.121 40.9067 185.507 38.88 184.281 37.6C183.107 36.2667 181.427 35.6 179.241 35.6C176.681 35.6 174.761 36.3733 173.481 37.92C172.201 39.4133 171.401 41.12 171.081 43.04C170.814 44.96 170.681 47.0933 170.681 49.44V68H160.201Z"></path><path d="M112.04 68V12H153.72V21.44H123.16V34.48H146.12V43.76H123.16V58.56H153.72V68H112.04Z"></path><g clip-path="url(#clip1_256_861)"><path d="M49.962 39.1284C50.4433 44.6303 46.3734 49.4806 40.8716 49.9619C35.3697 50.4433 30.5194 46.3734 30.0381 40.8715C29.5567 35.3697 33.6266 30.5194 39.1285 30.038C44.6303 29.5567 49.4806 33.6266 49.962 39.1284Z"></path><path fill-rule="evenodd" clip-rule="evenodd" d="M18.68 47.207C16.4179 48.7957 13.7197 49.8279 10.7678 50.0861C7.11054 50.4061 3.63039 49.4884 0.740931 47.6802C4.59761 67.5228 22.902 81.6487 43.4863 79.8478C61.632 78.2602 75.8634 64.8005 79.2387 47.8089C80.1802 43.069 77.101 38.4633 72.3612 37.5218C67.6213 36.5802 63.0156 39.6594 62.074 44.3993C60.1737 53.9659 52.1481 61.5231 41.961 62.4144C31.4082 63.3376 21.9207 56.8192 18.68 47.207Z"></path><path fill-rule="evenodd" clip-rule="evenodd" d="M38.0389 17.5856C27.8537 18.4767 19.8292 26.0313 17.927 35.5954C16.9843 40.3351 12.3778 43.4131 7.63819 42.4705C2.89854 41.5278 -0.179522 36.9213 0.763158 32.1817C4.14177 15.1945 18.3712 1.73946 36.5137 0.152205C57.0979 -1.64868 75.4023 12.4771 79.259 32.3197C76.3696 30.5115 72.8895 29.5939 69.2322 29.9139C66.2803 30.1721 63.5821 31.2043 61.32 32.793C58.0793 23.1808 48.5918 16.6624 38.0389 17.5856Z"></path></g></g><defs><clipPath id="clip0_256_861"><rect width="334" height="80" fill="white"></rect></clipPath><clipPath id="clip1_256_861"><rect width="80" height="80" fill="white"></rect></clipPath></defs></svg>